/* XPM */
static char *PIxC0fFs[] = {
/* columns rows colors chars-per-pixel */
"32 32 244 2 ",
"   c #5B1133",
".  c #621332",
"X  c #0F0F6B",
"o  c #131362",
"O  c #121265",
"+  c #141469",
"@  c #13136C",
"#  c #0B0B70",
"$  c #00007F",
"%  c #01007F",
"&  c #01017F",
"*  c #03007E",
"=  c #02027F",
"-  c #05007D",
";  c #06007D",
":  c #06067D",
">  c #0B0B7A",
",  c #0A0A7B",
"<  c #151575",
"1  c #171775",
"2  c #1A1A73",
"3  c #181874",
"4  c #2B0963",
"5  c #2B006A",
"6  c #2C006A",
"7  c #240B6E",
"8  c #350565",
"9  c #21216F",
"0  c #23236E",
"q  c #23236F",
"w  c #2A2A6B",
"e  c #2F2F68",
"r  c #2C2C6A",
"t  c #353565",
"y  c #3D3D61",
"u  c #303068",
"i  c #520F45",
"p  c #410758",
"a  c #5F1250",
"s  c #690A40",
"d  c #7D0041",
"f  c #720A47",
"g  c #543454",
"h  c #42425F",
"j  c #47475C",
"k  c #44445E",
"l  c #4A4A5B",
"z  c #4F4F58",
"x  c #595953",
"c  c #505058",
"v  c #65654D",
"b  c #6F6F49",
"n  c #757545",
"m  c #404060",
"M  c #A71B07",
"N  c #9E2B00",
"B  c #BD2200",
"V  c #85003D",
"C  c #DC1700",
"Z  c #D61800",
"A  c #DE1F00",
"S  c #CB001A",
"D  c #CE0019",
"F  c #D91413",
"G  c #F90003",
"H  c red",
"J  c #FF0100",
"K  c #FF0200",
"L  c #FF0300",
"P  c #FC0002",
"I  c #FF0400",
"U  c #FF0500",
"Y  c #FF0600",
"T  c #FF0700",
"R  c #FF0800",
"E  c #FF0900",
"W  c #FF0A00",
"Q  c #FF0C00",
"!  c #FF0E00",
"~  c #FF0F00",
"^  c #FF1000",
"/  c #FF1100",
"(  c #FF1300",
")  c #FD1400",
"_  c #FC1500",
"`  c #FF1500",
"'  c #FF1600",
"]  c #FF1700",
"[  c #F71804",
"{  c #FF1C00",
"}  c #FF1F00",
"|  c #D42700",
" . c #DB3C00",
".. c #C03B1F",
"X. c #FF2300",
"o. c #FF2700",
"O. c #FF2A00",
"+. c #FF2E00",
"@. c #F43205",
"#. c #FF3300",
"$. c #FF3700",
"%. c #FF3800",
"&. c #FF3B00",
"*. c #FF3C00",
"=. c #BF5600",
"-. c #B05F00",
";. c #AA6400",
":. c #A26E00",
">. c #AE6B00",
",. c #C34300",
"<. c #D44900",
"1. c #D24D00",
"2. c #D34F00",
"3. c #DB4800",
"4. c #D95300",
"5. c #FF4000",
"6. c #FF4100",
"7. c #FF4400",
"8. c #FF4600",
"9. c #FF4900",
"0. c #FF4A00",
"q. c #FF4D00",
"w. c #FF4F00",
"e. c #FF5000",
"r. c #FF5100",
"t. c #FF5200",
"y. c #FF5300",
"u. c #FF5400",
"i. c #FF5500",
"p. c #FF5600",
"a. c #FF5700",
"s. c #FF5A00",
"d. c #FF5C00",
"f. c #FF5E00",
"g. c #C56C00",
"h. c #CA7300",
"j. c #FF6000",
"k. c #FF6300",
"l. c #FF6800",
"z. c #FF6C00",
"x. c #FF7100",
"c. c #FF7700",
"v. c #FF7C00",
"b. c #8F8F00",
"n. c #969600",
"m. c #9B9B00",
"M. c #9D9D00",
"N. c #9F9F00",
"B. c #A1A100",
"V. c #A4A400",
"C. c #A6A600",
"Z. c #ADA300",
"A. c #AAAA00",
"S. c #AFAF00",
"D. c #B2B200",
"F. c #B5B500",
"G. c #B6B600",
"H. c #BABA00",
"J. c #BBBB00",
"K. c #BDBD00",
"L. c #9D9D31",
"P. c #A7A72D",
"I. c #A4A42E",
"U. c #A9A92B",
"Y. c #B3B326",
"T. c #BABA23",
"R. c #BFBF20",
"E. c #BEBE21",
"W. c #FF8000",
"Q. c #FF8500",
"!. c #FF8A00",
"~. c #FF8F00",
"^. c #FF9300",
"/. c #FF9400",
"(. c #FF9B00",
"). c #FFA000",
"_. c #FFA600",
"`. c #FFAC00",
"'. c #FFB000",
"]. c #FFB500",
"[. c #FFB900",
"{. c #FFBE00",
"}. c #C5C51D",
"|. c #C4C41E",
" X c #C9C91B",
".X c #CFCF18",
"XX c #CECE19",
"oX c #CCCC1A",
"OX c #D2D217",
"+X c #D5D515",
"@X c #D7D714",
"#X c #DBDB12",
"$X c #DADA13",
"%X c #DDDD11",
"&X c #DEDE11",
"*X c #D8D814",
"=X c #FFC100",
"-X c #FFC300",
";X c #F8C400",
":X c #FFC600",
">X c #F9C800",
",X c #FFC800",
"<X c #FFCA00",
"1X c #FFCB00",
"2X c #FFCC00",
"3X c #FFCD00",
"4X c #FCCE00",
"5X c #FFCE00",
"6X c #FFD400",
"7X c #F7D800",
"8X c #FFDB00",
"9X c #FFDE00",
"0X c #FFDF00",
"qX c #E8E800",
"wX c #EBEB00",
"eX c #E1E10F",
"rX c #E3E30E",
"tX c #E6E60D",
"yX c #E9E90B",
"uX c #EBEB0A",
"iX c #FFE100",
"pX c #FFE200",
"aX c #FFE500",
"sX c #FFE700",
"dX c #FFE900",
"fX c #FFEB00",
"gX c #FFEC00",
"hX c #FFEE00",
"jX c #F6F600",
"kX c #F1F107",
"lX c #FFF000",
"zX c #FFF200",
"xX c #FFF500",
"cX c #FFF700",
"vX c #FFF900",
"bX c #FFFC00",
"nX c #FFFD00",
"mX c #FEFE00",
"MX c #FFFE00",
"NX c yellow",
"BX c #F0F008",
"VX c #E0E010",
"CX c navy",
"ZX c None",
/* pixels */
"ZXZXZXZXZXZXZXZXZXZXZXZXZXZXM.C.C.M.n.ZXZXZXZXZXZXZXZXZXZXZXZXZX",
"ZXZXZXZXZXZXZXZXZXZXm.qXNXNXNXNXNXNXNXNXqXA.ZXZXZXZXZXZXZXZXZXZX",
"ZXZXZXZXZXZXZXZXB.NXNXNXNXNXNXNXNXNXNXNXNXNXNXH.ZXZXZXZXZXZXZXZX",
"ZXZXZXZXZXZXZX>X5X,X5X5X5X,X5X,X5X5X,X5X5X5X,X5X;X>.ZXZXZXZXZXZX",
"ZXZXZXZXZXA H H H H H H H H H H H H H H H H H H H H 3.ZXZXZXZXZX",
"ZXZXZXZX| H H H H H H H H H H H H H H H H H H H H H H 2.ZXZXZXZX",
"ZXZXZXB H H H H H H H H H H H H H H H H H H Y Y W ~ ~ ( =.ZXZXZX",
"ZXZXZXg ZXZXZX[.=X,X5X6X8XiXsXfXlXxXvXNXNXNXNXNXNXNXNXNXjXZXZXZX",
"ZXZX@ CX1 ZXZXZXZXZXZXNXNXNXNXNXNXNXNXNXNXNXNXNXNXNXNXNXNXK.ZXZX",
"ZXZX$ CXCX$ l ZXZXZXZXNXNXNXNXNXNXNXNXNXNXNXNXNXNXNXNXNXNXNXZXZX",
"ZX4 CXCXCXCXCX7 ..r.r.r.r.i.i.i.i.i.i.s.i.s.i.s.i.i.i.i.i.i.4.ZX",
"ZX$ CXCXCXCXw CX- d G H H H H H H H H H H H H H H H H H H H _ ZX",
". CXCXCXCX0 .XCXCXCX6 S H H H H H H H H H H H H H H H H H H H -.",
"s CXCXCXCXL.uXt CXCX$ $ f [ { X.X.o.O.+.#.$.&.5.7.0.q.r.s.s.j.g.",
"O CXn U.Y.%XtXI.r CXCXCXCX1 I.NXNXNXNXNXNXNXNXNXNXNXNXNXNXNXNXS.",
"# CX3 T..X@XVXyXkX+X9 CXCXCX$ c BXNXNXNXNXNXNXNXNXNXNXNXNXNXNXF.",
"@ CXCXm  XOX$XtXVXj CXCXCXCXCXe $XNXNXNXNXNXNXNXNXNXNXNXNXNXNXD.",
"o CXCXu }.oX+X%Xm CXCXCXCX: b NXNXNXNXNXNXNXNXNXNXNXNXNXvXxXlXZ.",
"i $ CXx E.E..X*Xt CXCXCX8 F { _ _ ( ( ~ ~ ~ W Y H Y H H H H H 2.",
"  CXCXv c > y }.j CX- V H H H H H H H H H H H H H H H H H H H ;.",
"ZX- CXCXCXCXCX2 r 6 S H H H H H H H H H H H H H H H H H H H _ ZX",
"ZXp CXCXCXCXCX$ a @.&.*.5.7.q.q.i.s.j.j.l.z.x.c.v.W.Q.!.~.^.h.ZX",
"ZXZX$ CXCXCX, ZXZXZXZXZXZXZXZXNXNXNXNXNXNXNXNXNXNXNXNXNXNXNXZXZX",
"ZXZX+ CXCX9 ZXZXZXZXZXZXZXZXZXNXNXNXNXNXNXNXNXNXNXNXNXNXNXH.ZXZX",
"ZXZXZX: ZXZXZXZXZXZXZXZXZXZXZXNXNXNXNXvXlXhXfXfXsXiXiX9X7XZXZXZX",
"ZXZXZXM W W W W W W W Y Y Y Y H H H H H H H H H H H H H ,.ZXZXZX",
"ZXZXZXZXZ H H H H H H H H H H H H H H H H H H H H H H <.ZXZXZXZX",
"ZXZXZXZXZXC H H H H H H H H H H H H H H H H H H H H  .ZXZXZXZXZX",
"ZXZXZXZXZXZXN ZXZXZXZX/.(.)._.`.'.].[.{.=X:X,X6X5X:.ZXZXZXZXZXZX",
"ZXZXZXZXZXZXZXZXZXZXZXZXZXZXZXZXZXNXNXNXNXNXNXF.ZXZXZXZXZXZXZXZX",
"ZXZXZXZXZXZXZXZXZXZXZXZXZXZXZXZXZXNXNXNXqXM.ZXZXZXZXZXZXZXZXZXZX",
"ZXZXZXZXZXZXZXZXZXZXZXZXZXZXZXb.n.ZXZXZXZXZXZXZXZXZXZXZXZXZXZXZX"
};
