/* XPM */
static char *ydk4EUr6[] = {
/* columns rows colors chars-per-pixel */
"64 64 157 2 ",
"   c #1B1B00",
".  c #10101A",
"X  c #27081F",
"o  c #242400",
"O  c #2E2E00",
"+  c #353500",
"@  c #3C3C00",
"#  c #0B0B34",
"$  c #111139",
"%  c #151521",
"&  c #390A2D",
"*  c #4B0E00",
"=  c #4F111A",
"-  c #582E00",
";  c #5B3800",
":  c #733B00",
">  c #782A00",
",  c #4D0730",
"<  c #444400",
"1  c #4C4C00",
"2  c #545400",
"3  c #5A5A00",
"4  c #626200",
"5  c #686800",
"6  c #7E7E00",
"7  c #0C0C43",
"8  c #0C0C4E",
"9  c #0D0D53",
"0  c #38045D",
"q  c #0E0E69",
"w  c #090976",
"e  c #04037E",
"r  c #0C0079",
"t  c #0B0B7A",
"y  c #070777",
"u  c #130076",
"i  c #100078",
"p  c #141476",
"a  c #191973",
"s  c #22006F",
"d  c #370763",
"f  c #25256D",
"g  c #2B2B6A",
"h  c #393964",
"j  c #353566",
"k  c #202070",
"l  c #4B005B",
"z  c #450258",
"x  c #520158",
"c  c #4F0649",
"v  c #65004D",
"b  c #6B184B",
"n  c #62354F",
"m  c #44445E",
"M  c #4C4C5A",
"N  c #525257",
"B  c #595953",
"V  c #63634E",
"C  c #6B6B4B",
"Z  c #747446",
"A  c #787844",
"S  c #404060",
"D  c #851500",
"F  c #BB1400",
"G  c #872A00",
"H  c #AC3100",
"J  c #A13700",
"K  c #B53500",
"L  c #B92700",
"P  c #9C0032",
"I  c #A3002F",
"U  c #B30026",
"Y  c #8C3332",
"T  c #C90D00",
"R  c #C4001E",
"E  c #E3000E",
"W  c #EA0606",
"Q  c #F50303",
"!  c #FF0000",
"~  c #FF0B00",
"^  c #E51200",
"/  c #EC1F00",
"(  c #EC1600",
")  c #FF1400",
"_  c #FF1C00",
"`  c #F11700",
"'  c #D42B00",
"]  c #D92800",
"[  c #D23200",
"{  c #DA2D13",
"}  c #E12100",
"|  c #ED2500",
" . c #ED2900",
".. c #FF2300",
"X. c #FF2B00",
"o. c #F22400",
"O. c #FE3400",
"+. c #FF3B00",
"@. c #9D4300",
"#. c #FF4400",
"$. c #FF4C00",
"%. c #FF5300",
"&. c #FF5B00",
"*. c #FF6400",
"=. c #FF6B00",
"-. c #FF7300",
";. c #FF7C00",
":. c #838300",
">. c #8C8C00",
",. c #929200",
"<. c #9D9D00",
"1. c #A3A300",
"2. c #ABAB00",
"3. c #BCBC00",
"4. c #B1B100",
"5. c #83833E",
"6. c #8B8B3A",
"7. c #949436",
"8. c #9B9B32",
"9. c #A3A32F",
"0. c #B4B426",
"q. c #BDBD21",
"w. c #FF8300",
"e. c #FE8B00",
"r. c #FF9400",
"t. c #FF9B00",
"y. c #D6A800",
"u. c #E3A500",
"i. c #FFA300",
"p. c #FEAB00",
"a. c #FFB300",
"s. c #FFBB00",
"d. c #CCCC00",
"f. c #D9D900",
"g. c #C4C41D",
"h. c #CBCB1A",
"j. c #D4D416",
"k. c #DCDC12",
"l. c #D0D018",
"z. c #FFC300",
"x. c #FFCB00",
"c. c #FFD300",
"v. c #FFDB00",
"b. c #F1D100",
"n. c #EBEB00",
"m. c #E3E30E",
"M. c #EBEB0A",
"N. c #FFE300",
"B. c #FFEC00",
"V. c #F4F403",
"C. c #FFF400",
"Z. c #FFFF00",
"A. c #E0E010",
"S. c #C0C020",
"D. c #808040",
"F. c navy",
"G. c None",
/* pixels */
"G.G.G.G.G.G.G.G.G.G.G.G.G.G.G.G.G.G.G.G.G.G.G.G.G.G.G.G.O < 1 3 2 1 < + G.G.G.G.G.G.G.G.G.G.G.G.G.G.G.G.G.G.G.G.G.G.G.G.G.G.G.G.",
"G.G.G.G.G.G.G.G.G.G.G.G.G.G.G.G.G.G.G.G.G.G.G.+ 3 ,.3.n.Z.Z.Z.Z.Z.Z.Z.Z.V.f.>.3 + G.G.G.G.G.G.G.G.G.G.G.G.G.G.G.G.G.G.G.G.G.G.G.",
"G.G.G.G.G.G.G.G.G.G.G.G.G.G.G.G.G.G.G.G.+ 2 2.Z.Z.Z.Z.Z.Z.Z.Z.Z.Z.Z.Z.Z.Z.Z.Z.Z.Z.4.5 < G.G.G.G.G.G.G.G.G.G.G.G.G.G.G.G.G.G.G.G.",
"G.G.G.G.G.G.G.G.G.G.G.G.G.G.G.G.G.G.@ 1.Z.Z.Z.Z.Z.Z.Z.Z.Z.Z.Z.Z.Z.Z.Z.Z.Z.Z.Z.Z.Z.Z.Z.Z.<.< G.G.G.G.G.G.G.G.G.G.G.G.G.G.G.G.G.G.",
"G.G.G.G.G.G.G.G.G.G.G.G.G.G.G.G.O >.G.Z.Z.Z.Z.Z.Z.Z.Z.Z.Z.Z.Z.Z.Z.Z.Z.Z.Z.Z.Z.Z.Z.Z.Z.Z.Z.Z.,.< G.G.G.G.G.G.G.G.G.G.G.G.G.G.G.G.",
"G.G.G.G.G.G.G.G.G.G.G.G.G.G.G.5 G.G.G.Z.Z.Z.Z.Z.Z.Z.Z.Z.Z.Z.Z.Z.Z.Z.Z.Z.Z.Z.Z.Z.Z.Z.Z.Z.Z.Z.Z.V.:.< G.G.G.G.G.G.G.G.G.G.G.G.G.G.",
"G.G.G.G.G.G.G.G.G.G.G.G.G.+ G.G.G.G.G.Z.Z.Z.Z.Z.Z.Z.Z.Z.Z.Z.Z.Z.Z.Z.Z.Z.Z.Z.Z.Z.Z.Z.Z.Z.Z.Z.Z.Z.Z.f.< G.G.G.G.G.G.G.G.G.G.G.G.G.",
"G.G.G.G.G.G.G.G.G.G.G.G.: a.p.p.p.p.p.p.p.i.i.i.i.i.i.i.i.i.t.i.i.t.t.t.t.t.t.t.t.t.r.r.r.r.r.r.r.r.e.J G.G.G.G.G.G.G.G.G.G.G.G.",
"G.G.G.G.G.G.G.G.G.G.G.^ ! ! ! ! ! ! ! ! ! ! ! ! ! ! ! ! ! ! ! ! ! ! ! ! ! ! ! ! ! ! ! ! ! ! ! ! ! ! ! ! ] G.G.G.G.G.G.G.G.G.G.G.",
"G.G.G.G.G.G.G.G.G.G.( ! ! ! ! ! ! ! ! ! ! ! ! ! ! ! ! ! ! ! ! ! ! ! ! ! ! ! ! ! ! ! ! ! ! ! ! ! ! ! ! ! ! | G.G.G.G.G.G.G.G.G.G.",
"G.G.G.G.G.G.G.G.G.` ! ! ! ! ! ! ! ! ! ! ! ! ! ! ! ! ! ! ! ! ! ! ! ! ! ! ! ! ! ! ! ! ! ! ! ! ! ! ! ! ! ! ! ! | G.G.G.G.G.G.G.G.G.",
"G.G.G.G.G.G.G.G.^ ! ! ! ! ! ! ! ! ! ! ! ! ! ! ! ! ! ! ! ! ! ! ! ! ! ! ! ! ! ! ! ! ! ! ! ! ! ! ! ! ! ! ! ! ! ! ' G.G.G.G.G.G.G.G.",
"G.G.G.G.G.G.G.F ! ! ! ! ! ! ! ! ! ! ! ! ! ! ! ! ! ! ! ! ! ! ! ! ! ! ! ! ! ! ! ! ! ! ! ! ! ! ! ! ! ! ! ! ! ! ! ! H G.G.G.G.G.G.G.",
"G.G.G.G.G.G.D ! ! ! ! ! ! ! ! ! ! ! ! ! ! ! ! ! ! ! ! ! ! ! ! ! ! ! ! ! ! ! ! ! ! ! ! ! ~ ~ ~ ~ ) ) ) _ _ ......X.: G.G.G.G.G.G.",
"G.G.G.G.G.% Y &.&.*.=.=.-.-.;.w.w.e.r.r.t.i.i.p.a.a.s.z.z.x.c.c.v.v.N.B.B.B.C.C.Z.Z.Z.Z.Z.Z.Z.Z.Z.Z.Z.Z.Z.Z.Z.Z.Z.f.G.G.G.G.G.G.",
"G.G.G.G.G.q F.g G.G.G.G.G.G.G.G.G.G.G.G.G.G.Z.Z.Z.Z.Z.Z.Z.Z.Z.Z.Z.Z.Z.Z.Z.Z.Z.Z.Z.Z.Z.Z.Z.Z.Z.Z.Z.Z.Z.Z.Z.Z.Z.Z.Z.Z.6 G.G.G.G.G.",
"G.G.G.G.$ F.F.F.t Z G.G.G.G.G.G.G.G.G.G.G.G.Z.Z.Z.Z.Z.Z.Z.Z.Z.Z.Z.Z.Z.Z.Z.Z.Z.Z.Z.Z.Z.Z.Z.Z.Z.Z.Z.Z.Z.Z.Z.Z.Z.Z.Z.Z.V.< G.G.G.G.",
"G.G.G.G.y F.F.F.F.F.g G.G.G.G.G.G.G.G.G.G.G.Z.Z.Z.Z.Z.Z.Z.Z.Z.Z.Z.Z.Z.Z.Z.Z.Z.Z.Z.Z.Z.Z.Z.Z.Z.Z.Z.Z.Z.Z.Z.Z.Z.Z.Z.Z.Z.,.G.G.G.G.",
"G.G.G.8 F.F.F.F.F.F.F.t Z G.G.G.G.G.G.G.G.G.Z.Z.Z.Z.Z.Z.Z.Z.Z.Z.Z.Z.Z.Z.Z.Z.Z.Z.Z.Z.Z.Z.Z.Z.Z.Z.Z.Z.Z.Z.Z.Z.Z.Z.Z.Z.Z.C.1 G.G.G.",
"G.G.G.w F.F.F.F.F.F.F.F.F.g G.G.G.G.G.G.G.G.G.Z.Z.Z.Z.Z.Z.Z.Z.Z.Z.Z.Z.Z.Z.Z.Z.Z.Z.Z.Z.Z.Z.Z.Z.Z.Z.Z.Z.Z.Z.Z.Z.Z.Z.Z.Z.Z.1.G.G.G.",
"G.G.$ F.F.F.F.F.F.F.F.F.F.F.w Z G.G.G.G.G.G.G.Z.C.C.C.B.B.N.N.N.v.v.v.v.c.c.c.c.x.x.x.x.z.z.z.z.s.z.s.s.s.s.s.a.a.a.a.a.p.; G.G.",
"G.G.0 F.F.F.F.F.F.F.F.F.F.F.F.F.x W ! ! ! ! ! ! ! ! ! ! ! ! ! ! ! ! ! ! ! ! ! ! ! ! ! ! ! ! ! ! ! ! ! ! ! ! ! ! ! ! ! ! ! K G.G.",
"G.G.F.F.F.F.F.F.F.F.F.F.F.F.F.F.F.i I ! ! ! ! ! ! ! ! ! ! ! ! ! ! ! ! ! ! ! ! ! ! ! ! ! ! ! ! ! ! ! ! ! ! ! ! ! ! ! ! ! ! ` G.G.",
"G.& F.F.F.F.F.F.F.F.F.F.Z h F.F.F.F.F.l E ! ! ! ! ! ! ! ! ! ! ! ! ! ! ! ! ! ! ! ! ! ! ! ! ! ! ! ! ! ! ! ! ! ! ! ! ! ! ! ! ! > G.",
"G.c F.F.F.F.F.F.F.F.F.p m.6.F.F.F.F.F.F.i I ~ ! ! ! ! ! ! ! ! ! ! ! ! ! ! ! ! ! ! ! ! ! ! ! ! ! ! ! ! ! ! ! ! ! ! ! ! ! ! ! K G.",
"G.d F.F.F.F.F.F.F.F.F.5.M.k.e F.F.F.F.F.F.F.l E ! ! ! ! ! ! ! ! ! ! ! ! ! ! ! ! ! ! ! ! ! ! ! ! ! ! ! ! ! ! ! ! ! ! ! ! ! ! [ G.",
"G.F.F.F.F.F.F.F.F.F.f A.M.M.m F.F.F.F.F.F.F.F.i P ! ! ! ! ! ! ! ! ! ! ! ! ! ! ! ! ! ! ! ! ! ! ! ! ! ! ! ! ! ! ! ! ! ! ! ! ! | G.",
"X F.F.F.F.F.F.F.F.F.8.m.M.M.7.F.F.F.F.F.F.F.F.F.F.d { +.+.#.#.#.$.$.%.&.&.&.*.=.=.-.-.;.;.w.e.e.r.r.t.t.i.i.p.a.s.a.s.z.z.x.y.G.",
"# F.F.F.C D.5.6.7.8.k.A.m.M.A.e F.F.F.F.F.F.F.F.F.F.F.C Z.Z.Z.Z.Z.Z.Z.Z.Z.Z.Z.Z.Z.Z.Z.Z.Z.Z.Z.Z.Z.Z.Z.Z.Z.Z.Z.Z.Z.Z.Z.Z.Z.Z.n.G.",
"7 F.F.F.j S.h.h.j.j.k.k.m.m.M.g.D.h F.F.F.F.F.F.F.F.F.F.f S.Z.Z.Z.Z.Z.Z.Z.Z.Z.Z.Z.Z.Z.Z.Z.Z.Z.Z.Z.Z.Z.Z.Z.Z.Z.Z.Z.Z.Z.Z.Z.Z.Z.@ ",
"8 F.F.F.F.V g.h.l.l.j.k.A.m.M.M.M.V.A.8.S F.F.F.F.F.F.F.F.F.C Z.Z.Z.Z.Z.Z.Z.Z.Z.Z.Z.Z.Z.Z.Z.Z.Z.Z.Z.Z.Z.Z.Z.Z.Z.Z.Z.Z.Z.Z.Z.Z.2 ",
"9 F.F.F.F.e 7.g.h.l.j.k.k.m.m.M.M.V.Z.M.S F.F.F.F.F.F.F.F.F.F.f g.Z.Z.Z.Z.Z.Z.Z.Z.Z.Z.Z.Z.Z.Z.Z.Z.Z.Z.Z.Z.Z.Z.Z.Z.Z.Z.Z.Z.Z.Z.3 ",
"9 F.F.F.F.F.p 0.h.h.l.j.k.k.A.M.M.M.j.g F.F.F.F.F.F.F.F.F.F.F.e D.Z.Z.Z.Z.Z.Z.Z.Z.Z.Z.Z.Z.Z.Z.Z.Z.Z.Z.Z.Z.Z.Z.Z.Z.Z.Z.Z.Z.Z.Z.3 ",
"7 F.F.F.F.F.F.m g.h.h.j.k.k.A.A.M.q.a F.F.F.F.F.F.F.F.F.F.F.f h.Z.Z.Z.Z.Z.Z.Z.Z.Z.Z.Z.Z.Z.Z.Z.Z.Z.Z.Z.Z.Z.Z.Z.Z.Z.Z.Z.Z.Z.Z.Z.1 ",
"7 F.F.F.F.F.F.M g.g.h.l.l.k.k.A.9.t F.F.F.F.F.F.F.F.F.F.e V Z.Z.Z.Z.Z.Z.Z.Z.Z.Z.Z.Z.Z.Z.Z.Z.Z.Z.Z.Z.Z.Z.Z.Z.Z.Z.Z.Z.Z.Z.Z.Z.Z.+ ",
"# F.F.F.F.F.F.A S.g.h.h.l.j.k.k.B F.F.F.F.F.F.F.F.F.F.a 0.Z.Z.Z.Z.Z.Z.Z.Z.Z.Z.Z.Z.Z.Z.Z.Z.Z.Z.Z.Z.Z.Z.Z.Z.Z.Z.Z.C.C.B.B.N.N.b.G.",
"G.F.F.F.F.F.F.9.q.S.g.h.h.j.k.k.C F.F.F.F.F.F.F.F.e b O.O.O.O.O.O.X.X.X.X........._ _ _ _ ) ) ) ~ ~ ~ ! ! ! ! ! ! ! ! ! ! ! ~ G.",
"G.u F.F.F.F.a 0.q.S.g.9.h.l.j.k.A F.F.F.F.F.F.F.s R ! ! ! ! ! ! ! ! ! ! ! ! ! ! ! ! ! ! ! ! ! ! ! ! ! ! ! ! ! ! ! ! ! ! ! ! o.G.",
"G.0 F.F.F.F.S 0.0.Z f F.g 0.j.j.6.F.F.F.F.F.F.v Q ! ! ! ! ! ! ! ! ! ! ! ! ! ! ! ! ! ! ! ! ! ! ! ! ! ! ! ! ! ! ! ! ! ! ! ! ! ' G.",
"G.c F.F.F.F.N N t F.F.F.F.t 7.j.7.F.F.F.F.u U ! ! ! ! ! ! ! ! ! ! ! ! ! ! ! ! ! ! ! ! ! ! ! ! ! ! ! ! ! ! ! ! ! ! ! ! ! ! ! H G.",
"G., F.F.F.F.F.F.F.F.F.F.F.F.F.V 9.F.F.F.x E ! ! ! ! ! ! ! ! ! ! ! ! ! ! ! ! ! ! ! ! ! ! ! ! ! ! ! ! ! ! ! ! ! ! ! ! ! ! ! ! - G.",
"G.G.i F.F.F.F.F.F.F.F.F.F.F.F.F.k F.r I ! ! ! ! ! ! ! ! ! ! ! ! ! ! ! ! ! ! ! ! ! ! ! ! ! ! ! ! ! ! ! ! ! ! ! ! ! ! ! ! ! / G.G.",
"G.G.c F.F.F.F.F.F.F.F.F.F.F.F.F.F.0 E ! ! ! ! ! ! ! ! ! ! ! ! ! ! ! ! ! ! ! ! ! ! ! ~ ~ ~ ~ ) ) ) _ _ _ ......X.X.X.O.O.+.K G.G.",
"G.G.& F.F.F.F.F.F.F.F.F.F.F.F.F.n r.r.t.i.i.p.s.s.z.z.x.c.c.v.N.N.B.B.C.C.Z.Z.Z.Z.Z.Z.Z.Z.Z.Z.Z.Z.Z.Z.Z.Z.Z.Z.Z.Z.Z.Z.Z.Z.< G.G.",
"G.G.G.w F.F.F.F.F.F.F.F.F.F.p G.G.G.G.G.G.G.G.G.G.G.G.G.G.Z.Z.Z.Z.Z.Z.Z.Z.Z.Z.Z.Z.Z.Z.Z.Z.Z.Z.Z.Z.Z.Z.Z.Z.Z.Z.Z.Z.Z.Z.Z.<.G.G.G.",
"G.G.G.7 F.F.F.F.F.F.F.F.F.h G.G.G.G.G.G.G.G.G.G.G.G.G.G.G.G.Z.Z.Z.Z.Z.Z.Z.Z.Z.Z.Z.Z.Z.Z.Z.Z.Z.Z.Z.Z.Z.Z.Z.Z.Z.Z.Z.Z.Z.Z.< G.G.G.",
"G.G.G.G.y F.F.F.F.F.F.t G.G.G.G.G.G.G.G.G.G.G.G.G.G.G.G.G.G.Z.Z.Z.Z.Z.Z.Z.Z.Z.Z.Z.Z.Z.Z.Z.Z.Z.Z.Z.Z.Z.Z.Z.Z.Z.Z.Z.Z.Z.>.G.G.G.G.",
"G.G.G.G.# F.F.F.F.F.g G.G.G.G.G.G.G.G.G.G.G.G.G.G.G.G.G.G.G.Z.Z.Z.Z.Z.Z.Z.Z.Z.Z.Z.Z.Z.Z.Z.Z.Z.Z.Z.Z.Z.Z.Z.Z.Z.Z.Z.Z.V.< G.G.G.G.",
"G.G.G.G.G.q e F.e G.G.G.G.G.G.G.G.G.G.G.G.G.G.G.G.G.G.G.G.G.G.Z.Z.Z.Z.Z.Z.Z.Z.Z.Z.Z.Z.Z.Z.Z.Z.Z.Z.Z.Z.Z.Z.Z.Z.Z.Z.Z.:.G.G.G.G.G.",
"G.G.G.G.G.. F.a G.G.G.G.G.G.G.G.G.G.G.G.G.G.G.G.G.G.G.G.G.G.G.Z.Z.Z.C.C.C.B.B.N.N.v.v.c.c.x.x.x.z.z.z.s.s.s.a.a.a.u.+ G.G.G.G.G.",
"G.G.G.G.G.G.= _ ) ) _ ) ) ) ) ) ) ) ~ ) ) ~ ~ ) ~ ~ ~ ! ~ ~ ! ! ! ! ! ! ! ! ! ! ! ! ! ! ! ! ! ! ! ! ! ! ! ! ! ! ! G G.G.G.G.G.G.",
"G.G.G.G.G.G.G.T ! ! ! ! ! ! ! ! ! ! ! ! ! ! ! ! ! ! ! ! ! ! ! ! ! ! ! ! ! ! ! ! ! ! ! ! ! ! ! ! ! ! ! ! ! ! ! ! L G.G.G.G.G.G.G.",
"G.G.G.G.G.G.G.G.^ ! ! ! ! ! ! ! ! ! ! ! ! ! ! ! ! ! ! ! ! ! ! ! ! ! ! ! ! ! ! ! ! ! ! ! ! ! ! ! ! ! ! ! ! ! ! } G.G.G.G.G.G.G.G.",
"G.G.G.G.G.G.G.G.G.Q ! ! ! ! ! ! ! ! ! ! ! ! ! ! ! ! ! ! ! ! ! ! ! ! ! ! ! ! ! ! ! ! ! ! ! ! ! ! ! ! ! ! ! !  .G.G.G.G.G.G.G.G.G.",
"G.G.G.G.G.G.G.G.G.* ~ ! ! ! ! ! ! ! ! ! ! ! ! ! ! ! ! ! ! ! ! ! ! ! ! ! ! ! ! ! ! ! ! ! ! ! ! ! ! ! ! ! !  .G.G.G.G.G.G.G.G.G.G.",
"G.G.G.G.G.G.G.G.G.G.G.W ! ! ! ! ! ! ! ! ! ! ! ! ! ! ! ! ! ! ! ! ! ! ! ! ! ! ! ! ! ! ! ! ! ! ! ! ! ! ! ! } G.G.G.G.G.G.G.G.G.G.G.",
"G.G.G.G.G.G.G.G.G.G.G.G.F O.O.O.+.+.#.#.#.$.$.%.%.&.&.&.&.*.=.=.=.-.-.-.;.;.;.w.w.e.e.e.r.r.r.t.t.i.i.@.G.G.G.G.G.G.G.G.G.G.G.G.",
"G.G.G.G.G.G.G.G.G.G.G.G.G.o G.G.G.G.G.G.G.G.G.G.G.G.G.G.G.G.G.G.G.Z.Z.Z.Z.Z.Z.Z.Z.Z.Z.Z.Z.Z.Z.Z.Z.n.1 G.G.G.G.G.G.G.G.G.G.G.G.G.",
"G.G.G.G.G.G.G.G.G.G.G.G.G.G.  G.G.G.G.G.G.G.G.G.G.G.G.G.G.G.G.G.G.Z.Z.Z.Z.Z.Z.Z.Z.Z.Z.Z.Z.Z.Z.Z.@.@ G.G.G.G.G.G.G.G.G.G.G.G.G.G.",
"G.G.G.G.G.G.G.G.G.G.G.G.G.G.G.G.o G.G.G.G.G.G.G.G.G.G.G.G.G.G.G.G.Z.Z.Z.Z.Z.Z.Z.Z.Z.Z.Z.Z.Z.1.+ G.G.G.G.G.G.G.G.G.G.G.G.G.G.G.G.",
"G.G.G.G.G.G.G.G.G.G.G.G.G.G.G.G.G.G.O G.G.G.G.G.G.G.G.G.G.G.G.G.G.G.Z.Z.Z.Z.Z.Z.Z.Z.Z.Z.3.2 G.G.G.G.G.G.G.G.G.G.G.G.G.G.G.G.G.G.",
"G.G.G.G.G.G.G.G.G.G.G.G.G.G.G.G.G.G.G.G.O 1 G.G.G.G.G.G.G.G.G.G.G.G.Z.Z.Z.Z.Z.Z.Z.3.3 @ G.G.G.G.G.G.G.G.G.G.G.G.G.G.G.G.G.G.G.G.",
"G.G.G.G.G.G.G.G.G.G.G.G.G.G.G.G.G.G.G.G.G.G.G.o @ >.G.G.G.G.G.G.G.G.Z.Z.Z.d.<.2 < G.G.G.G.G.G.G.G.G.G.G.G.G.G.G.G.G.G.G.G.G.G.G.",
"G.G.G.G.G.G.G.G.G.G.G.G.G.G.G.G.G.G.G.G.G.G.G.G.G.G.G.G.G.+ < < 1 < + O G.G.G.G.G.G.G.G.G.G.G.G.G.G.G.G.G.G.G.G.G.G.G.G.G.G.G.G."
};
