/* XPM */
static char *xlr6yDgC[] = {
/* columns rows colors chars-per-pixel */
"16 16 119 2 ",
"   c #3C055E",
".  c #090977",
"X  c #05057C",
"o  c #05057D",
"O  c #06067C",
"+  c #080878",
"@  c #09097B",
"#  c #140C76",
"$  c #1E1E71",
"%  c #1C1C72",
"&  c #3D0262",
"*  c #200270",
"=  c #23236E",
"-  c #313167",
";  c #303068",
":  c #57094B",
">  c #520C4D",
",  c #44045B",
"<  c #66154D",
"1  c #535357",
"2  c #5E5E51",
"3  c #6C6C4A",
"4  c #69694C",
"5  c #727247",
"6  c #7E7E41",
"7  c #89123B",
"8  c #DE1700",
"9  c #C20A1F",
"0  c #DA0913",
"q  c red",
"w  c #FF0200",
"e  c #FF0500",
"r  c #FF0700",
"t  c #FF0900",
"y  c #FF0B00",
"u  c #FF0C00",
"i  c #FF0D00",
"p  c #FF1000",
"a  c #FF1300",
"s  c #FF1700",
"d  c #F11807",
"f  c #FF1B00",
"g  c #FF1D00",
"h  c #DF2300",
"j  c #DE3310",
"k  c #FF2000",
"l  c #FF2200",
"z  c #FE2301",
"x  c #FF2400",
"c  c #FF2500",
"v  c #FF2600",
"b  c #FF2700",
"n  c #FF2800",
"m  c #FF2900",
"M  c #FF2A00",
"N  c #FF2B00",
"B  c #FF2C00",
"V  c #FF2D00",
"C  c #FF2E00",
"Z  c #E03C00",
"A  c #F23000",
"S  c #FF3000",
"D  c #FF3500",
"F  c #FE3501",
"G  c #FF3B00",
"H  c #FF3F00",
"J  c #DB5200",
"K  c #D85900",
"L  c #E44C00",
"P  c #EB4A00",
"I  c #FF4300",
"U  c OrangeRed",
"Y  c #FF4800",
"T  c #FF4A00",
"R  c #FF4D00",
"E  c #FF5100",
"W  c #FF5500",
"Q  c #FF5800",
"!  c #FF5B00",
"~  c #FF5D00",
"^  c #FF5F00",
"/  c #FF6000",
"(  c #FF6200",
")  c #FF6500",
"_  c #FF6C00",
"`  c #FF7200",
"'  c #FF7800",
"]  c #FE7E00",
"[  c #81813F",
"{  c #A8A82C",
"}  c #C1C100",
"|  c #C9C900",
" . c #CACA00",
".. c #D5CE00",
"X. c #D5D500",
"o. c #CBCB1A",
"O. c #CFCF18",
"+. c #D7D714",
"@. c #DCDC12",
"#. c #E1CD00",
"$. c #E7CC00",
"%. c #E9CE00",
"&. c #FFD000",
"*. c #FFD500",
"=. c #FFDC00",
"-. c #E6E600",
";. c #ECEC00",
":. c #FFE100",
">. c #FFE600",
",. c #FFE700",
"<. c #FFE800",
"1. c #FFEA00",
"2. c #F7F705",
"3. c #FFFC00",
"4. c yellow",
"5. c #FCFC02",
"6. c navy",
"7. c #010180",
"8. c None",
/* pixels */
"8.8.8.8.8.8.8.| | } 8.8.8.8.8.8.",
"8.8.8.8.#.1.1.1.1.,.,.%.8.8.8.8.",
"8.8.h q q q q q q q q q q L 8.8.",
"8.8.F G I T E W ^ ) _ ` ' ] 8.8.",
"8.O % 8.8.8.4.4.4.4.4.4.4.4.;.8.",
"> 6.6.# 7 z b b m m m B B B B J ",
", 6.- 6 6.& 0 i p p s f g b m P ",
"+ 6 O.+.[ + O 4 5.4.4.4.4.4.4.X.",
"+ % o.@.2 6.6.1 2.4.4.4.4.4.4...",
"  ; 5 { = * 9 t t t e e q q q A ",
": 6.6.O < d g z b m S F G H I K ",
"8.O O 3 8.8.8.4.4.4.4.4.4.4.-.8.",
"8.8.j I T R E W ! ! ^ / / / 8.8.",
"8.8.8 q q q q q q q q q q Z 8.8.",
"8.8.8.8.8.8.8.&.*.=.:.$.8.8.8.8.",
"8.8.8.8.8.8.8.8.8.8.8.8.8.8.8.8."
};
